<svg width="123" height="124" viewBox="0 0 123 124" fill="none" xmlns="http://www.w3.org/2000/svg">
<rect y="0.938721" width="123" height="123" rx="15" fill="#353535"/>
<path d="M37.4091 32.9387V21.3024H44.3864V22.5524H38.8182V26.4842H43.8636V27.7342H38.8182V32.9387H37.4091ZM48.2088 21.3024V32.9387H46.7997V21.3024H48.2088ZM58.9886 24.9387C58.8636 24.5561 58.6989 24.2133 58.4943 23.9103C58.2936 23.6035 58.053 23.3421 57.7727 23.1262C57.4962 22.9103 57.1818 22.7455 56.8295 22.6319C56.4773 22.5183 56.0909 22.4614 55.6705 22.4614C54.9811 22.4614 54.3542 22.6395 53.7898 22.9955C53.2254 23.3516 52.7765 23.8762 52.4432 24.5694C52.1098 25.2626 51.9432 26.113 51.9432 27.1205C51.9432 28.1281 52.1117 28.9785 52.4489 29.6717C52.786 30.3649 53.2424 30.8895 53.8182 31.2455C54.3939 31.6016 55.0417 31.7796 55.7614 31.7796C56.428 31.7796 57.0152 31.6376 57.5227 31.3535C58.0341 31.0656 58.4318 30.6603 58.7159 30.1376C59.0038 29.6111 59.1477 28.9918 59.1477 28.2796L59.5795 28.3705H56.0795V27.1205H60.5114V28.3705C60.5114 29.3289 60.3068 30.1622 59.8977 30.8705C59.4924 31.5789 58.9318 32.1281 58.2159 32.5183C57.5038 32.9046 56.6856 33.0978 55.7614 33.0978C54.7311 33.0978 53.8258 32.8554 53.0455 32.3705C52.2689 31.8857 51.6629 31.1963 51.2273 30.3024C50.7955 29.4084 50.5795 28.3478 50.5795 27.1205C50.5795 26.2001 50.7027 25.3724 50.9489 24.6376C51.1989 23.8989 51.5511 23.2702 52.0057 22.7512C52.4602 22.2323 52.9981 21.8346 53.6193 21.558C54.2405 21.2815 54.9242 21.1433 55.6705 21.1433C56.2841 21.1433 56.8561 21.2361 57.3864 21.4217C57.9205 21.6035 58.3958 21.863 58.8125 22.2001C59.233 22.5334 59.5833 22.933 59.8636 23.3989C60.1439 23.8611 60.3371 24.3743 60.4432 24.9387H58.9886ZM62.9247 21.3024H64.6065L68.5611 30.9614H68.6974L72.652 21.3024H74.3338V32.9387H73.0156V24.0978H72.902L69.2656 32.9387H67.9929L64.3565 24.0978H64.2429V32.9387H62.9247V21.3024ZM77.6364 32.9387H76.1591L80.4318 21.3024H81.8864L86.1591 32.9387H84.6818L81.2045 23.1433H81.1136L77.6364 32.9387ZM78.1818 28.3933H84.1364V29.6433H78.1818V28.3933Z" fill="white"/>
<g clip-path="url(#clip0_334_4539)">
<path d="M51.2521 103.939C56.357 103.939 60.5002 99.7573 60.5002 94.6053V85.272H51.2521C46.1471 85.272 42.0039 89.4533 42.0039 94.6053C42.0039 99.7573 46.1471 103.939 51.2521 103.939Z" fill="#0ACF83"/>
<path d="M42.0039 75.9388C42.0039 70.7868 46.1471 66.6055 51.2521 66.6055H60.5002V85.2721H51.2521C46.1471 85.2721 42.0039 81.0908 42.0039 75.9388Z" fill="#A259FF"/>
<path d="M42.0039 57.2721C42.0039 52.1201 46.1471 47.9387 51.2521 47.9387H60.5002V66.6054H51.2521C46.1471 66.6054 42.0039 62.4241 42.0039 57.2721Z" fill="#F24E1E"/>
<path d="M60.5 47.9387H69.7482C74.8531 47.9387 78.9963 52.1201 78.9963 57.2721C78.9963 62.4241 74.8531 66.6054 69.7482 66.6054H60.5V47.9387Z" fill="#FF7262"/>
<path d="M78.9963 75.9388C78.9963 81.0908 74.8531 85.2721 69.7482 85.2721C64.6432 85.2721 60.5 81.0908 60.5 75.9388C60.5 70.7868 64.6432 66.6055 69.7482 66.6055C74.8531 66.6055 78.9963 70.7868 78.9963 75.9388Z" fill="#1ABCFE"/>
</g>
<defs>
<clipPath id="clip0_334_4539">
<rect width="37" height="56" fill="white" transform="translate(42 47.9387)"/>
</clipPath>
</defs>
</svg>
