<!DOCTYPE svg PUBLIC "-//W3C//DTD SVG 1.1//EN" "http://www.w3.org/Graphics/SVG/1.1/DTD/svg11.dtd">
<!-- Uploaded to: SVG Repo, www.svgrepo.com, Transformed by: SVG Repo Mixer Tools -->
<svg width="64px" height="64px" viewBox="0 0 1024 1024" class="icon" version="1.1" xmlns="http://www.w3.org/2000/svg" fill="#000000">
<g id="SVGRepo_bgCarrier" stroke-width="0"/>
<g id="SVGRepo_tracerCarrier" stroke-linecap="round" stroke-linejoin="round"/>
<g id="SVGRepo_iconCarrier">
<path d="M371.712 869.888l-61.952 62.464v15.36h404.48v-15.36l-61.952-62.464v-0.512H371.712z" fill="#2d929f"/>
<path d="M371.712 793.088h280.064v76.288H371.712z" fill="#000000"/>
<path d="M947.712 76.288H76.288c-25.6 0-46.592 20.992-46.592 46.592v622.592c0 25.6 20.992 46.592 46.592 46.592h295.936v0.512h280.064v-0.512h295.936c25.6 0 46.592-20.992 46.592-46.592V122.88c0-26.112-20.992-46.592-47.104-46.592zM243.2 792.064H829.44 243.2z m689.152-124.416H91.648V138.24h840.704v529.408z" fill="#2d929f"/>
</g>
</svg>